PathFileType	3	(X/Y/Z)	D:\minhoCalibration\240510\subject3_KPNP\preferred\preferred15.trc
DataRate	CameraRate	NumFrames	NumMarkers	Units	OrigDataRate	OrigDataStartFrame	OrigNumFrames
200.0	200.0	24	10	mm	200.0	170	140	
Frame#	Time	Left_Ankle_Outer1			Left_Ankle_Inner1			Left_Knee_Outer1			Left_Knee_Inner1			Left_Wrist1			Right_Wrist1			Right_Knee_Inner1			Right_Knee_Outer1			Right_Ankle_Inner1			Right_Ankle_Outer1			
		X1	Y1	Z1	X2	Y2	Z2	X3	Y3	Z3	X4	Y4	Z4	X5	Y5	Z5	X6	Y6	Z6	X7	Y7	Z7	X8	Y8	Z8	X9	Y9	Z9	X10	Y10	Z10	
170	0.84	-320.81775	78.392296	-542.48181	-376.81775	84.818466	-553.48419	-285.56308	499.52975	-410.01825	-395.28836	499.88507	-411.24161	-245.45992	844.46619	-597.10303	-577.25983	862.49811	-739.70172	-596.44604	410.43698	-811.33838	-664.35974	490.10327	-870.18433	-454.5683	141.03838	-1094.5815	-511.27069	187.93094	-1163.1597
171	0.845	-320.94733	77.902779	-542.26013	-376.6741	84.790482	-553.38391	-284.38251	497.85657	-407.20438	-393.93256	497.3891	-409.87601	-241.87112	846.01508	-593.76416	-577.41724	864.4989	-728.94885	-602.36078	411.6897	-797.85272	-671.0033	491.72693	-854.67859	-459.22736	149.66042	-1088.7247	-517.2326	196.53697	-1156.963
172	0.85	-321.00256	77.865227	-542.25043	-376.86554	84.98912	-553.23578	-283.07889	496.44934	-404.51657	-392.3992	495.00797	-408.67703	-238.15149	847.52185	-590.59027	-577.18463	867.12671	-718.43738	-608.18335	413.08762	-783.56909	-677.21283	493.4946	-838.80255	-464.59271	158.30963	-1082.4972	-525.85083	206.94997	-1147.9564
173	0.855	-321.55969	77.822227	-542.04626	-377.26868	85.396332	-552.94379	-281.767	495.3327	-401.81073	-390.72311	493.96289	-406.82416	-234.7403	848.96826	-587.35748	-576.91425	869.96472	-707.89758	-613.69482	414.65717	-768.27209	-683.0202	495.46664	-822.56628	-470.94025	167.37999	-1075.4725	-532.41541	214.50839	-1138.8943
174	0.86	-321.64398	78.079971	-542.0127	-377.31052	85.778938	-552.68188	-280.39999	494.5881	-399.26569	-388.80518	493.02444	-405.26651	-230.99077	850.48505	-584.48059	-576.41357	872.98584	-697.46576	-618.81506	416.44534	-752.01013	-688.48718	497.69968	-805.79022	-476.38824	177.92856	-1068.3342	-542.35388	225.65201	-1129.9032
175	0.865	-322.30154	78.011826	-541.49695	-377.27396	86.412628	-552.41016	-278.87253	494.1546	-397.0972	-386.71182	492.75052	-403.79459	-227.31602	851.99164	-581.83051	-575.73541	876.26178	-687.07629	-623.39923	418.60468	-734.83752	-693.59491	500.03271	-788.28223	-482.52878	188.64845	-1060.6758	-552.51422	236.93138	-1118.5052
176	0.87	-321.49796	78.543655	-541.39337	-376.82144	86.931068	-552.10406	-277.02618	494.16016	-395.43765	-384.79718	493.16821	-401.63693	-223.6398	853.66156	-579.33899	-575.15741	879.90009	-676.47986	-627.31494	421.24948	-716.76166	-698.4361	502.44086	-770.08368	-488.69263	200.56177	-1052.319	-561.26099	243.41307	-1107.2605
177	0.875	-320.85992	78.950073	-541.03473	-375.88104	87.116913	-551.42505	-275.13211	494.39642	-394.17078	-382.57736	494.08969	-399.85489	-220.06178	855.34338	-577.104	-573.29193	883.42706	-666.56647	-630.60565	424.39716	-698.11633	-702.68634	504.75986	-750.56464	-494.95883	213.14246	-1043.0604	-572.5293	255.37184	-1095.1886
178	0.88	-320.03754	79.485909	-540.70453	-375.24814	87.226372	-550.97125	-273.01273	494.89279	-393.34583	-380.33972	495.28561	-398.14383	-216.10443	857.27252	-575.50641	-572.28003	887.01331	-655.85645	-633.15613	427.81421	-679.32147	-706.58569	507.29138	-730.06311	-501.58054	226.86723	-1032.9319	-582.16345	264.24948	-1082.1141
179	0.885	-319.10498	80.089241	-540.39539	-374.0741	88.939888	-551.45288	-270.50739	495.6799	-393.10486	-377.37595	496.44937	-396.67331	-212.82422	859.16705	-574.37805	-570.8551	890.9826	-645.06946	-634.43109	431.44693	-660.73071	-710.65704	510.54077	-709.81146	-507.58475	241.73283	-1021.6701	-592.73407	275.78223	-1068.8094
180	0.89	-318.60013	80.633492	-539.90643	-373.1813	89.409958	-550.51141	-267.78476	496.53424	-393.18527	-373.86307	497.67017	-394.81561	-209.29851	861.3374	-573.6944	-569.02008	895.17786	-634.41052	-635.96173	435.32065	-641.19263	-714.41431	514.20441	-689.08185	-513.45227	257.35568	-1009.2205	-602.05383	287.53937	-1053.8881
181	0.895	-317.8125	81.469826	-539.51685	-372.50299	90.556244	-549.90839	-264.92645	497.45108	-393.61273	-370.50867	498.8233	-393.36731	-205.74847	863.55475	-573.67828	-565.92786	899.09741	-623.51056	-636.03827	439.25653	-622.39203	-717.85608	518.47131	-667.6532	-519.41278	273.42874	-995.63147	-611.39661	299.21393	-1037.1931
182	0.9	-316.91174	82.526695	-539.12018	-371.99753	92.106102	-549.88037	-261.89261	498.37009	-394.30252	-367.41406	500.15939	-392.17358	-202.17284	865.72137	-574.1261	-563.81311	904.36603	-612.95276	-634.99609	443.17078	-603.92712	-720.888	523.53711	-645.7392	-524.43665	289.44455	-980.84753	-619.56738	313.07724	-1019.7915
183	0.905	-316.44925	83.497597	-538.52899	-371.24261	93.399788	-549.20966	-258.88373	499.25601	-395.2258	-364.42853	501.47784	-390.46103	-199.14775	867.72986	-574.58417	-561.0274	909.19403	-602.23004	-633.75726	448.16211	-583.5238	-723.37085	529.33759	-623.03625	-530.85913	304.72461	-964.5946	-627.17523	327.37564	-1002.9114
184	0.91	-315.78149	84.463989	-537.9986	-370.3479	94.652115	-548.40704	-255.78471	500.16522	-396.34909	-360.43268	502.51068	-390.38116	-195.83813	869.8587	-575.60248	-557.47668	914.0141	-592.09015	-631.90594	453.46289	-564.19055	-725.11316	535.78955	-600.34277	-537.6712	319.51657	-947.56445	-634.7995	344.21545	-982.58978
185	0.915	-314.58908	85.85289	-537.58405	-369.56232	96.113159	-547.7384	-252.7653	501.1828	-397.63855	-357.40906	504.03683	-389.24927	-192.57495	872.1618	-576.76312	-554.23193	919.32727	-581.7428	-629.63721	459.32413	-544.6626	-725.96973	543.18152	-575.81219	-545.40118	333.70255	-929.66681	-640.73468	359.61261	-965.60382
186	0.92	-313.70111	87.081047	-536.97772	-368.66379	97.647324	-546.9892	-249.93245	502.23373	-398.95529	-353.88705	505.46365	-388.99417	-189.13794	874.57526	-578.25854	-550.23163	925.63757	-571.56415	-627.1098	465.81638	-525.14612	-726.5741	551.00739	-549.17224	-552.55377	348.17169	-911.37439	-647.58093	377.16174	-945.21954
187	0.925	-312.76666	88.426353	-536.15802	-367.83087	99.363182	-546.22339	-247.19484	503.38708	-400.35101	-350.79901	506.87796	-388.52441	-185.89218	876.9422	-579.88513	-546.11298	931.25848	-562.11487	-624.50702	472.91547	-505.26447	-726.07495	559.57397	-523.35944	-559.77112	362.82162	-892.82434	-654.58978	394.22571	-924.75531
188	0.93	-312.00613	89.949684	-535.31769	-366.82037	101.08518	-545.36572	-244.52605	504.74561	-401.74084	-347.7352	508.55923	-388.71722	-182.59624	879.28052	-581.7439	-541.61542	937.78979	-552.93445	-621.58136	481.03406	-485.18723	-724.73248	568.98944	-497.36145	-567.39526	377.67682	-873.91095	-662.51404	411.61356	-903.20056
189	0.935	-310.77084	91.764862	-534.67108	-365.94479	102.85549	-544.34711	-241.68726	506.36417	-403.18524	-344.91885	510.58841	-388.90546	-179.06622	881.65955	-584.06958	-536.84503	944.30829	-543.98999	-618.7168	490.10321	-464.55667	-722.4826	579.64996	-471.4111	-575.35681	392.65332	-854.8092	-670.5166	428.82455	-881.21478
190	0.94	-309.96027	93.511314	-533.83228	-365.25748	104.47324	-542.83881	-239.54269	507.96854	-404.20084	-341.98294	512.46875	-389.54535	-175.56059	883.87823	-586.69196	-531.21484	950.6908	-535.84619	-615.5578	500.2756	-443.19791	-719.09589	590.87799	-445.94373	-581.83948	408.43103	-836.21753	-679.36389	446.08313	-858.0589
191	0.945	-309.61163	95.236931	-532.97754	-364.92786	106.70841	-541.77167	-236.97617	509.8905	-405.43106	-339.48065	514.70703	-389.96661	-172.48857	886.06519	-589.7113	-525.7757	957.96918	-527.40369	-611.96783	511.61862	-420.60974	-715.10931	603.75342	-420.83072	-591.88123	423.67252	-815.96246	-688.46649	462.33301	-834.09753
192	0.95	-309.29132	97.189529	-532.21265	-364.67358	108.73283	-540.38434	-234.18942	512.04889	-406.80945	-336.33154	517.17419	-391.37997	-169.64899	888.1944	-593.19464	-520.12457	965.33228	-519.72894	-608.10522	523.97791	-397.94366	-710.13745	617.31812	-396.71777	-599.83649	439.92792	-796.35657	-697.57996	479.42032	-810.67926
193	0.955	-309.23489	99.192863	-531.61438	-364.77008	110.98142	-539.18652	-231.35825	514.24811	-408.1145	-333.73938	519.80591	-391.65735	-167.7841	890.16711	-597.03088	-513.67621	972.64227	-512.50098	-603.54333	537.1554	-374.83029	-704.30798	632.16931	-373.04694	-609.97943	455.48871	-775.24786	-707.29303	497.1922	-784.95551
